:SAMPLES-PER-SECOND 30
:FULLY-SPECIFIED
:DEGREES
1
root  36.8281 40.6021 -8.63394 -157.442 -86.5705 156.923
RightUpLeg  2.12815 -9.07498 -6.92036
RightLeg  4.57314 -8.66301 3.28317
RightFoot  -4.4167 -0.14812 1.92619
RightToes  0.00048216 0.542163 -0.142577
Spine  2.05265 1.08155 -0.159763
Spine1  3.23023 1.15786 0.183914
HEad  -1.3589 3.85229 -0.479436
LeftShoulder1  0.883315 -2.79917 -6.27422
LeftArm  -18.8041 12.8818 -4.76608
LeftForeArm  21.9643 -5.69869 -0.911407
LeftHand  -0.25398 0.0180481 5.50724
RightShoulder  0.273315 -1.44724 5.22914
RightArm  -26.337 0.591653 3.05211
RightForeArm  4.58893 4.77468 1.8004
RightHand  -0.700324 0.465601 -13.9363
LeftUpLeg  0.987374 4.6886 1.09281
LeftLeg  1.62426 17.9177 -4.46308
LeftFoot  -2.4113 -0.0739316 1.18958
LeftToes  1.06246e-005 4.65855e-005 -8.18503e-006
2
root  36.809 40.6047 -8.64031 -157.647 -86.622 157.108
RightUpLeg  2.18324 -9.04855 -6.86205
RightLeg  4.57217 -8.747 3.26725
RightFoot  -4.39007 -0.130447 1.652
RightToes  0.00048216 0.542163 -0.142577
Spine  2.05792 1.07004 -0.127801
Spine1  3.24421 1.15506 0.128913
HEad  -1.44233 4.13344 -0.496536
LeftShoulder1  0.883315 -2.7753 -6.22982
LeftArm  -18.8321 12.9192 -4.76661
LeftForeArm  22.0148 -5.78061 -0.908748
LeftHand  -0.25398 0.0180481 5.50724
RightShoulder  0.27334 -1.43625 5.29738
RightArm  -26.4267 0.620265 2.94459
RightForeArm  4.65446 4.89736 1.79386
RightHand  -0.708662 0.495882 -14.031
LeftUpLeg  1.04768 4.7212 1.14777
LeftLeg  1.60492 17.831 -4.47816
LeftFoot  -2.41025 -0.0703747 1.13429
LeftToes  1.06246e-005 4.65855e-005 -8.18503e-006
3
root  36.7744 40.6079 -8.65271 -157.478 -86.7064 156.882
RightUpLeg  2.30126 -9.02588 -6.80423
RightLeg  4.57642 -8.82971 3.24048
RightFoot  -4.3596 -0.105078 1.25837
RightToes  0.00048216 0.542163 -0.142577
Spine  2.13865 1.05977 -0.191445
Spine1  3.19935 1.14412 0.148018
HEad  -1.60277 4.34528 -0.574762
LeftShoulder1  0.883315 -2.79348 -6.2321
LeftArm  -18.8544 13.0486 -4.67294
LeftForeArm  22.032 -5.89852 -0.898953
LeftHand  -0.25398 0.0180481 5.50724
RightShoulder  0.273952 -1.4095 5.28352
RightArm  -26.635 0.593253 2.9041
RightForeArm  4.58663 5.12134 1.77293
RightHand  -0.73697 0.578786 -14.3908
LeftUpLeg  1.18427 4.75072 1.20208
LeftLeg  1.55463 17.7062 -4.49868
LeftFoot  -2.40373 -0.0681012 1.09895
LeftToes  1.06246e-005 4.65855e-005 -8.18503e-006
4
root  36.7399 40.6086 -8.66624 -156.747 -86.7669 156.071
RightUpLeg  2.44252 -9.0514 -6.82151
RightLeg  4.60094 -8.85746 3.23788
RightFoot  -4.36795 -0.0923635 1.06106
RightToes  0.00048216 0.542163 -0.142577
Spine  2.32063 1.06572 -0.334618
Spine1  3.06112 1.14668 0.172789
HEad  -1.75913 4.18796 -0.642518
LeftShoulder1  0.880829 -2.817 -6.19262
LeftArm  -18.8606 13.1622 -4.5805
LeftForeArm  22.0309 -5.88151 -0.873651
LeftHand  -0.25398 0.0180481 5.50724
RightShoulder  0.276603 -1.38543 5.24202
RightArm  -26.7944 0.519635 2.92148
RightForeArm  4.47066 5.23767 1.74351
RightHand  -0.772807 0.71646 -14.7597
LeftUpLeg  1.33433 4.74901 1.2039
LeftLeg  1.52502 17.6331 -4.49704
LeftFoot  -2.39502 -0.0693818 1.11885
LeftToes  1.06246e-005 4.65855e-005 -8.18503e-006
5
root  36.7085 40.6069 -8.67507 -155.89 -86.7866 155.17
RightUpLeg  2.52763 -9.11171 -6.88968
RightLeg  4.66749 -8.85591 3.25842
RightFoot  -4.44626 -0.0909194 1.03865
RightToes  0.00048216 0.542163 -0.142577
Spine  2.48521 1.09007 -0.411422
Spine1  2.91117 1.19685 0.0568177
HEad  -1.80287 3.97732 -0.637292
LeftShoulder1  0.869458 -2.80358 -6.00663
LeftArm  -18.8067 13.211 -4.61432
LeftForeArm  21.9983 -5.76912 -0.871059
LeftHand  -0.25398 0.0180481 5.50724
RightShoulder  0.280646 -1.37278 5.29555
RightArm  -26.7889 0.447709 2.85656
RightForeArm  4.49175 5.17115 1.71775
RightHand  -0.780654 0.761645 -14.8022
LeftUpLeg  1.42787 4.73222 1.17366
LeftLeg  1.52567 17.6135 -4.48746
LeftFoot  -2.41404 -0.0707043 1.13941
LeftToes  1.06246e-005 4.65855e-005 -8.18503e-006
6
root  36.6782 40.6037 -8.6769 -155.085 -86.7921 154.397
RightUpLeg  2.50997 -9.15863 -6.94859
RightLeg  4.76439 -8.82722 3.26679
RightFoot  -4.56372 -0.0918816 1.05358
RightToes  0.00048216 0.542163 -0.142577
Spine  2.54695 1.1254 -0.424458
Spine1  2.79584 1.26756 -0.100761
HEad  -1.70558 4.04147 -0.609994
LeftShoulder1  0.859371 -2.80633 -5.82127
LeftArm  -18.6648 13.2973 -4.69508
LeftForeArm  21.8752 -5.76207 -0.922629
LeftHand  -0.25398 0.0180481 5.50724
RightShoulder  0.284208 -1.35276 5.36304
RightArm  -26.6461 0.365309 2.73954
RightForeArm  4.47326 5.01972 1.71887
RightHand  -0.765513 0.694712 -14.6713
LeftUpLeg  1.43612 4.70161 1.1291
LeftLeg  1.53507 17.6187 -4.47605
LeftFoot  -2.46916 -0.0690742 1.11407
LeftToes  1.06246e-005 4.65855e-005 -8.18503e-006
7
root  36.6486 40.6 -8.67511 -153.859 -86.8112 153.241
RightUpLeg  2.44564 -9.21315 -7.02065
RightLeg  4.85577 -8.77013 3.27913
RightFoot  -4.64967 -0.092788 1.06765
RightToes  0.00048216 0.542163 -0.142577
Spine  2.58115 1.16438 -0.53933
Spine1  2.65833 1.30463 -0.081297
HEad  -1.59405 4.19175 -0.622623
LeftShoulder1  0.871496 -2.87528 -5.86993
LeftArm  -18.5294 13.4536 -4.64897
LeftForeArm  21.7041 -5.87239 -0.977225
LeftHand  -0.25398 0.0180481 5.50724
RightShoulder  0.284604 -1.33688 5.33951
RightArm  -26.4885 0.272449 2.69277
RightForeArm  4.22266 4.85854 1.74255
RightHand  -0.766216 0.699259 -14.6744
LeftUpLeg  1.3959 4.63134 1.04581
LeftLeg  1.54438 17.6469 -4.44144
LeftFoot  -2.5268 -0.0663458 1.07166
LeftToes  1.06246e-005 4.65855e-005 -8.18503e-006
8
root  36.6176 40.5957 -8.67116 -151.769 -86.8473 151.23
RightUpLeg  2.40085 -9.36489 -7.18797
RightLeg  4.93354 -8.70162 3.3709
RightFoot  -4.71485 -0.0949185 1.10071
RightToes  0.00048216 0.542163 -0.142577
Spine  2.65455 1.20238 -0.791317
Spine1  2.45869 1.3098 0.0811999
HEad  -1.58438 4.11385 -0.640148
LeftShoulder1  0.900073 -2.97646 -6.12666
LeftArm  -18.5284 13.5571 -4.46891
LeftForeArm  21.6041 -5.8996 -0.960224
LeftHand  -0.25398 0.0180481 5.50724
RightShoulder  0.277701 -1.38644 5.31887
RightArm  -26.4816 0.215505 2.70924
RightForeArm  4.13466 4.67553 1.71652
RightHand  -0.765504 0.729863 -14.5897
LeftUpLeg  1.33943 4.5278 0.916333
LeftLeg  1.56178 17.6801 -4.39705
LeftFoot  -2.5959 -0.0628416 1.02926
LeftToes  1.06246e-005 4.65855e-005 -8.18503e-006
9
root  36.5806 40.5878 -8.65689 -149.123 -86.9187 148.71
RightUpLeg  2.34715 -9.61755 -7.44206
RightLeg  5.01241 -8.59885 3.55463
RightFoot  -4.84654 -0.103672 1.25021
RightToes  0.00048216 0.542163 -0.142577
Spine  2.71645 1.22164 -0.969428
Spine1  2.22535 1.31995 0.128747
HEad  -1.60761 3.92903 -0.657441
LeftShoulder1  0.925259 -3.05536 -6.3708
LeftArm  -18.7008 13.5936 -4.32595
LeftForeArm  21.6207 -5.87316 -0.872452
LeftHand  -0.25398 0.0180481 5.50724
RightShoulder  0.261618 -1.51741 5.37969
RightArm  -26.74 0.143099 2.77771
RightForeArm  4.57547 4.56061 1.58587
RightHand  -0.712976 0.478137 -14.1549
LeftUpLeg  1.19367 4.43404 0.788314
LeftLeg  1.6948 17.6543 -4.3492
LeftFoot  -2.82724 -0.0495484 0.894496
LeftToes  1.06246e-005 4.65855e-005 -8.18503e-006
10
root  36.54 40.5709 -8.61932 -146.758 -87.0796 146.514
RightUpLeg  2.26301 -9.84392 -7.65984
RightLeg  5.09989 -8.46065 3.72977
RightFoot  -5.03682 -0.125179 1.65126
RightToes  0.00048216 0.542163 -0.142577
Spine  2.79228 1.18857 -0.872416
Spine1  1.98713 1.32315 -0.0497081
HEad  -1.58803 3.91882 -0.829583
LeftShoulder1  0.94069 -3.07763 -6.57994
LeftArm  -19.1494 13.7845 -4.38284
LeftForeArm  21.6858 -6.28264 -0.747219
LeftHand  -0.25398 0.0180481 5.50724
RightShoulder  0.245964 -1.63951 5.40452
RightArm  -27.1398 -0.171659 3.09509
RightForeArm  4.62189 4.83734 1.48232
RightHand  -0.669869 0.12222 -14.1461
LeftUpLeg  0.852884 4.34961 0.698317
LeftLeg  2.2058 17.55 -4.17709
LeftFoot  -3.41716 -0.0205754 0.592339
LeftToes  1.06246e-005 4.65855e-005 -8.18503e-006
